<svg width="12" height="16" viewBox="0 0 12 16" fill="none" xmlns="http://www.w3.org/2000/svg">
<path d="M6 7.84C6.90576 7.76832 7.74698 7.34325 8.34197 6.65657C8.93696 5.9699 9.23798 5.07674 9.18 4.17C9.18 2.14 8.71 0.5 6 0.5C3.29 0.5 2.82 2.14 2.82 4.17C2.76202 5.07674 3.06304 5.9699 3.65803 6.65657C4.25302 7.34325 5.09424 7.76832 6 7.84ZM12 13.29C11.94 9.76 11.46 8.75 7.75 8.12C7.51933 8.34263 7.24412 8.51387 6.94249 8.62246C6.64085 8.73105 6.31964 8.77452 6 8.75C5.68199 8.77308 5.36269 8.72891 5.06289 8.62036C4.76309 8.51181 4.48952 8.34132 4.26 8.12C0.59 8.75 0.08 9.74 0 13.17V13.81C0 13.81 0.88 15.5 6 15.5C11.12 15.5 12 13.81 12 13.81V13.5V13.26V13.29Z" fill="#F9F9FB"/>
</svg>
