<svg width="20" height="20" viewBox="0 0 20 20" fill="none" xmlns="http://www.w3.org/2000/svg">
<path d="M7.19457 5.49291C8.11656 2.82938 11.8834 2.82938 12.8054 5.49291L14.3125 9.84667C14.4179 10.1512 14.1918 10.4688 13.8695 10.4688H6.13046C5.80824 10.4688 5.5821 10.1512 5.6875 9.84667L7.19457 5.49291Z" stroke="#F9F9FB" stroke-width="1.5625"/>
<path d="M2.64423 8.07692C2.5789 7.8156 2.8156 7.5789 3.07692 7.64423C7.62236 8.78059 12.3776 8.78059 16.9231 7.64423C17.1844 7.5789 17.4211 7.8156 17.3558 8.07692L15.8705 14.018C15.7176 14.6296 15.2628 15.1207 14.6647 15.3201C11.6368 16.3294 8.36319 16.3294 5.33526 15.3201C4.73718 15.1207 4.28241 14.6296 4.12951 14.018L2.64423 8.07692Z" fill="#F9F9FB"/>
</svg>
