<svg width="20" height="20" viewBox="0 0 20 20" fill="none" xmlns="http://www.w3.org/2000/svg">
<path fill-rule="evenodd" clip-rule="evenodd" d="M15.8336 5.58057C16.1265 5.28768 16.1265 4.8128 15.8336 4.51991C15.5407 4.22702 15.0659 4.22702 14.773 4.51991L10 9.29288L5.22703 4.51991C4.93414 4.22702 4.45926 4.22702 4.16637 4.51991C3.87348 4.8128 3.87348 5.28768 4.16637 5.58057L8.93934 10.3535L4.51992 14.773C4.22703 15.0659 4.22703 15.5407 4.51992 15.8336C4.81282 16.1265 5.28769 16.1265 5.58058 15.8336L10 11.4142L14.4194 15.8336C14.7123 16.1265 15.1872 16.1265 15.4801 15.8336C15.773 15.5407 15.773 15.0659 15.4801 14.773L11.0607 10.3535L15.8336 5.58057Z" fill="#7B7B8C"/>
</svg>
