<svg width="32" height="32" viewBox="0 0 32 32" fill="none" xmlns="http://www.w3.org/2000/svg">
<path d="M10 3H26V25H10V3Z" stroke="#0E0E1B" stroke-width="2"/>
<mask id="mask0_959_4512" style="mask-type:alpha" maskUnits="userSpaceOnUse" x="5" y="6" width="18" height="24">
<mask id="path-2-inside-1_959_4512" fill="white">
<path fill-rule="evenodd" clip-rule="evenodd" d="M14 6H5V30H23V15L14 6Z"/>
</mask>
<path fill-rule="evenodd" clip-rule="evenodd" d="M14 6H5V30H23V15L14 6Z" fill="#D9D9D9"/>
<path d="M5 6V4H3V6H5ZM14 6L15.4142 4.58579L14.8284 4H14V6ZM5 30H3V32H5V30ZM23 30V32H25V30H23ZM23 15H25V14.1716L24.4142 13.5858L23 15ZM5 8H14V4H5V8ZM7 30V6H3V30H7ZM23 28H5V32H23V28ZM21 15V30H25V15H21ZM24.4142 13.5858L15.4142 4.58579L12.5858 7.41421L21.5858 16.4142L24.4142 13.5858Z" fill="#0E0E1B" mask="url(#path-2-inside-1_959_4512)"/>
</mask>
<g mask="url(#mask0_959_4512)">
<mask id="path-4-inside-2_959_4512" fill="white">
<path fill-rule="evenodd" clip-rule="evenodd" d="M14 6H5V30H23V15L14 6Z"/>
</mask>
<path fill-rule="evenodd" clip-rule="evenodd" d="M14 6H5V30H23V15L14 6Z" fill="#EEEDF2"/>
<path d="M5 6V4H3V6H5ZM14 6L15.4142 4.58579L14.8284 4H14V6ZM5 30H3V32H5V30ZM23 30V32H25V30H23ZM23 15H25V14.1716L24.4142 13.5858L23 15ZM5 8H14V4H5V8ZM7 30V6H3V30H7ZM23 28H5V32H23V28ZM21 15V30H25V15H21ZM24.4142 13.5858L15.4142 4.58579L12.5858 7.41421L21.5858 16.4142L24.4142 13.5858Z" fill="#0E0E1B" mask="url(#path-4-inside-2_959_4512)"/>
<path d="M21.8889 14.8889L14.1111 14.8889L14.1111 7.11111L21.8889 7.11111L21.8889 14.8889Z" stroke="#0E0E1B" stroke-width="2.22222"/>
</g>
</svg>
