<svg width="24" height="18" viewBox="0 0 24 18" fill="none" xmlns="http://www.w3.org/2000/svg">
<path fill-rule="evenodd" clip-rule="evenodd" d="M8.17761 1.87942C4.38021 3.59984 1.65804 7.29743 1.20124 7.91791L1.20124 7.91791C1.17036 7.95986 1.14983 7.98774 1.14003 8C1.02811 8.14264 0.967285 8.3187 0.967285 8.5C0.967285 8.6813 1.02811 8.85736 1.14003 9C1.14983 9.01226 1.17036 9.04014 1.20124 9.08209C1.80021 9.89569 6.29421 16 12 16C13.3544 16 14.6405 15.6561 15.8224 15.1206L15.0492 13.7813C14.0868 14.1925 13.0608 14.45 12 14.45C7.59003 14.45 3.78003 10 2.65003 8.5C3.50857 7.36034 5.90837 4.5178 8.95034 3.21784L8.17761 1.87942ZM9.72248 4.55523C9.41005 4.75615 9.12107 4.99645 8.86333 5.27255C8.04823 6.14574 7.61191 7.30608 7.64973 8.5C7.61191 9.69391 8.04823 10.8542 8.86333 11.7274C9.67843 12.6006 10.806 13.1157 11.9997 13.16C12.8161 13.1297 13.6016 12.8792 14.2774 12.4445L13.5178 11.1289C13.3973 11.206 13.2713 11.2745 13.1404 11.3338C12.7814 11.4966 12.3938 11.5871 11.9997 11.6C11.6057 11.5871 11.2181 11.4966 10.859 11.3338C10.5 11.171 10.1765 10.939 9.90719 10.6511C9.63786 10.3632 9.42792 10.025 9.28937 9.6559C9.15082 9.2868 9.08638 8.89402 9.09973 8.5C9.08638 8.10598 9.15082 7.71319 9.28937 7.34409C9.42792 6.97499 9.63786 6.63682 9.90719 6.34892C10.0785 6.16579 10.2717 6.00528 10.482 5.87081L9.72248 4.55523ZM11.9436 5.40236L11.1119 3.96184C11.401 3.89241 11.6983 3.85119 11.9997 3.84C13.1934 3.88432 14.321 4.39936 15.1361 5.27255C15.9512 6.14574 16.3876 7.30608 16.3497 8.5C16.3831 9.55253 16.0479 10.579 15.4096 11.4056L14.5757 9.96121C14.626 9.8622 14.6709 9.76029 14.7101 9.6559C14.8486 9.2868 14.9131 8.89402 14.8997 8.5C14.9131 8.10598 14.8486 7.71319 14.7101 7.34409C14.5715 6.97499 14.3616 6.63682 14.0923 6.34892C13.8229 6.06101 13.4995 5.82901 13.1404 5.66619C12.7814 5.50337 12.3938 5.41291 11.9997 5.4C11.981 5.40061 11.9623 5.4014 11.9436 5.40236ZM16.3854 13.0957C18.7818 11.6633 20.622 9.48413 21.35 8.55C20.22 7.03 16.42 2.55 12 2.55C11.4577 2.55 10.9248 2.61698 10.4049 2.73729L9.60394 1.34991C10.3717 1.12819 11.1732 1 12 1C17.7058 1 22.1998 7.1043 22.7988 7.91791C22.8297 7.95986 22.8502 7.98774 22.86 8V8.08C22.9533 8.21525 23.0033 8.37568 23.0033 8.54C23.0033 8.70432 22.9533 8.86475 22.86 9C22.8502 9.01225 22.8297 9.04012 22.7988 9.08205L22.7988 9.08209C22.3972 9.62761 20.2445 12.5516 17.1496 14.4194L16.3854 13.0957Z" fill="#7B7B8C"/>
<rect x="5.70099" y="0.589722" width="1.5" height="20" rx="0.75" transform="rotate(-30 5.70099 0.589722)" fill="#7B7B8C"/>
</svg>
