<svg width="24" height="15" viewBox="0 0 24 15" fill="none" xmlns="http://www.w3.org/2000/svg">
<path d="M22.86 7C22.66 6.75 18 0 12 0C6.00003 0 1.34003 6.75 1.14003 7C1.02811 7.14264 0.967285 7.3187 0.967285 7.5C0.967285 7.6813 1.02811 7.85736 1.14003 8C1.34003 8.25 6.00003 15 12 15C18 15 22.66 8.25 22.86 8C22.9533 7.86475 23.0033 7.70432 23.0033 7.54C23.0033 7.37568 22.9533 7.21525 22.86 7.08V7ZM12 13.45C7.59003 13.45 3.78003 9 2.65003 7.5C3.78003 6 7.58003 1.55 12 1.55C16.42 1.55 20.22 6.03 21.35 7.55C20.22 9 16.41 13.45 12 13.45Z" fill="#7B7B8C"/>
<path d="M11.9997 2.83997C10.806 2.88429 9.67843 3.39933 8.86333 4.27252C8.04823 5.14571 7.61191 6.30605 7.64973 7.49997C7.61191 8.69388 8.04823 9.85422 8.86333 10.7274C9.67843 11.6006 10.806 12.1156 11.9997 12.16C13.1934 12.1156 14.321 11.6006 15.1361 10.7274C15.9512 9.85422 16.3876 8.69388 16.3497 7.49997C16.3876 6.30605 15.9512 5.14571 15.1361 4.27252C14.321 3.39933 13.1934 2.88429 11.9997 2.83997ZM11.9997 10.6C11.6057 10.5871 11.2181 10.4966 10.859 10.3338C10.5 10.171 10.1765 9.93895 9.90719 9.65105C9.63786 9.36314 9.42792 9.02497 9.28937 8.65587C9.15082 8.28677 9.08638 7.89399 9.09973 7.49997C9.08638 7.10595 9.15082 6.71316 9.28937 6.34406C9.42792 5.97496 9.63786 5.63679 9.90719 5.34888C10.1765 5.06098 10.5 4.82898 10.859 4.66616C11.2181 4.50334 11.6057 4.41288 11.9997 4.39997C12.3938 4.41288 12.7814 4.50334 13.1404 4.66616C13.4995 4.82898 13.8229 5.06098 14.0923 5.34888C14.3616 5.63679 14.5715 5.97496 14.7101 6.34406C14.8486 6.71316 14.9131 7.10595 14.8997 7.49997C14.9131 7.89399 14.8486 8.28677 14.7101 8.65587C14.5715 9.02497 14.3616 9.36314 14.0923 9.65105C13.8229 9.93895 13.4995 10.171 13.1404 10.3338C12.7814 10.4966 12.3938 10.5871 11.9997 10.6Z" fill="#7B7B8C"/>
</svg>
