<svg width="20" height="20" viewBox="0 0 20 20" fill="none" xmlns="http://www.w3.org/2000/svg">
<path fill-rule="evenodd" clip-rule="evenodd" d="M12.1471 6.1025C13.8394 7.79477 13.8394 10.5385 12.1471 12.2308C10.4548 13.923 7.7111 13.923 6.01882 12.2308C4.32655 10.5385 4.32655 7.79477 6.01882 6.1025C7.7111 4.41022 10.4548 4.41022 12.1471 6.1025ZM13.7043 12.7273C15.4716 10.4395 15.3061 7.14021 13.2077 5.04184C10.9297 2.76378 7.23622 2.76378 4.95816 5.04184C2.68011 7.31989 2.68011 11.0134 4.95816 13.2914C7.05652 15.3898 10.3558 15.5553 12.6436 13.788L12.6774 13.8217L16.2129 17.3573L16.7432 17.8876L17.8039 16.8269L17.2736 16.2966L13.738 12.7611L13.7043 12.7273Z" fill="#F9F9FB"/>
</svg>
