<svg width="7" height="17" viewBox="0 0 7 17" fill="none" xmlns="http://www.w3.org/2000/svg">
<path d="M4.66 6.23999V4.85999V4.37999C4.68127 4.26253 4.72544 4.1504 4.79 4.04999C4.82385 3.99302 4.86869 3.94335 4.92191 3.90387C4.97513 3.86438 5.03566 3.83587 5.1 3.81999C5.28649 3.77476 5.47818 3.75458 5.67 3.75999H7V0.999988H4.91C4.43966 0.955011 3.96517 1.01313 3.51958 1.17029C3.074 1.32745 2.66805 1.57988 2.33 1.90999C1.75895 2.67802 1.48221 3.62533 1.55 4.57999V6.23999H0V8.99999H1.55V17H4.66V8.99999H6.73L7 6.23999H4.66Z" fill="#F9F9FB"/>
</svg>
