<svg width="21" height="17" viewBox="0 0 21 17" fill="none" xmlns="http://www.w3.org/2000/svg">
<path fill-rule="evenodd" clip-rule="evenodd" d="M0.00598145 11.6586C0.00598145 11.6586 4.16766 15.2415 7.48103 11.6586C7.15918 11.6547 6.84475 11.5614 6.57285 11.3892C6.35537 11.1831 6.19981 10.9204 6.12375 10.6307C6.12375 10.6307 7.12175 10.0618 6.76247 9.63268C6.76247 9.63268 4.48702 9.63268 4.35728 8.23547L5.6946 7.37719C5.53649 7.44307 5.36689 7.47699 5.1956 7.47699C5.02431 7.47699 4.85472 7.44307 4.6966 7.37719C4.6966 7.37719 3.33931 6.37918 3.5988 5.44106L4.72654 5.3213C4.72654 5.3213 2.73053 3.94405 3.31935 2.88617C3.31935 2.88617 3.50898 1.97798 9.97604 6.22948C9.97604 6.22948 11.1237 2.23747 13.2295 1.32928C13.2295 1.32928 13.5788 1.49894 13.5788 1.67858C13.5788 1.67858 13.8782 1.03986 14.2774 0.97998C14.2774 0.97998 14.7465 1.39914 14.4371 1.62868C14.4371 1.62868 15.2455 1.08976 15.6347 1.3692C15.6347 1.3692 15.6347 1.84824 14.4471 2.44705C14.4471 2.44705 17.4411 2.60673 18.489 6.55882C18.8999 6.68272 19.3319 6.72008 19.7579 6.66855C20.1839 6.61702 20.5946 6.47771 20.9641 6.25942C20.9641 6.25942 21.0639 6.84824 19.1677 7.66661C19.1677 7.66661 19.3473 7.95603 20.9341 7.73647C20.9341 7.73647 20.9341 8.90413 18.4092 8.89415C18.4092 8.89415 16.2934 14.962 11.1437 15.8003C4.90618 16.8183 0.514964 13.7245 0.00598145 11.6586Z" fill="#F9F9FB"/>
</svg>
